#N canvas 0 0 450 647 10;
#X obj 9 453 osc~;
#X obj 8 423 line~;
#X obj 10 232 t b b;
#X obj 10 213 bng 15 250 50 0 empty empty empty 17 7 0 10 -262144 -1
-1;
#X obj 11 105 bng 15 250 50 0 empty empty empty 17 7 0 10 -262144 -1
-1;
#X msg 58 209 stop;
#X floatatom 62 109 5 0 0 0 - - -;
#X obj 8 527 hip~ 2500;
#X obj 11 189 sel 0 1 2 3;
#X obj 11 169 mod 4;
#X obj 11 148 int;
#X obj 37 148 + 1;
#X obj 9 276 random 4;
#X floatatom 8 297 5 0 0 0 - - -;
#X obj 8 317 sel 0 1 2 3;
#X obj 9 255 bng 15 250 50 0 empty empty empty 17 7 0 10 -262144 -1
-1;
#X obj 62 89 + 70;
#X obj 61 69 random 70;
#X floatatom 11 86 5 0 0 0 - - -;
#X obj 11 24 metro 1000;
#X obj 41 450 osc~;
#X obj 11 44 random 1000;
#X obj 11 64 + 1000;
#X obj 11 127 metro 200;
#X obj 37 253 del 100;
#X floatatom 92 242 5 0 0 0 - - -;
#X obj 10 495 +~;
#X obj 42 476 +~ 5;
#X msg 64 273 0 10;
#X obj 10 -1 loadbang;
#X obj 9 557 hip~ 5000;
#X obj 84 -2 bng 15 250 50 0 empty empty empty 17 7 0 10 -262144 -1
-1;
#X msg 8 337 6380 100;
#X msg 23 358 7530 100;
#X msg 38 380 2334 100;
#X msg 54 400 1212 100;
#X obj 92 221 + 30;
#X obj 92 197 random 100;
#X obj 9 582 dac~;
#X connect 0 0 26 0;
#X connect 1 0 0 0;
#X connect 1 0 20 0;
#X connect 2 0 15 0;
#X connect 2 1 24 0;
#X connect 3 0 2 0;
#X connect 4 0 17 0;
#X connect 4 0 23 0;
#X connect 4 0 37 0;
#X connect 5 0 23 0;
#X connect 6 0 23 1;
#X connect 7 0 30 0;
#X connect 8 0 3 0;
#X connect 8 1 3 0;
#X connect 8 2 3 0;
#X connect 8 3 5 0;
#X connect 9 0 8 0;
#X connect 10 0 11 0;
#X connect 10 0 9 0;
#X connect 11 0 10 1;
#X connect 12 0 13 0;
#X connect 13 0 14 0;
#X connect 14 0 32 0;
#X connect 14 1 33 0;
#X connect 14 2 34 0;
#X connect 14 3 35 0;
#X connect 15 0 12 0;
#X connect 16 0 6 0;
#X connect 17 0 16 0;
#X connect 18 0 19 1;
#X connect 19 0 4 0;
#X connect 19 0 21 0;
#X connect 20 0 27 0;
#X connect 21 0 22 0;
#X connect 22 0 18 0;
#X connect 23 0 10 0;
#X connect 24 0 28 0;
#X connect 25 0 24 1;
#X connect 26 0 7 0;
#X connect 27 0 26 1;
#X connect 28 0 1 0;
#X connect 29 0 19 0;
#X connect 30 0 38 0;
#X connect 30 0 38 1;
#X connect 31 0 19 0;
#X connect 32 0 1 0;
#X connect 33 0 1 0;
#X connect 34 0 1 0;
#X connect 35 0 1 0;
#X connect 36 0 25 0;
#X connect 37 0 36 0;
