#N canvas 478 127 450 315 10;
#X obj -315 -223 dac~;
#N canvas 436 105 450 507 tweetah 0;
#X obj 103 375 osc~;
#X obj 104 353 line~;
#X obj 105 282 t b b;
#X obj 105 263 bng 15 250 50 0 empty empty empty 17 7 0 10 -262144
-1 -1;
#X obj 104 69 bng 15 250 50 0 empty empty empty 17 7 0 10 -262144 -1
-1;
#X msg 176 277 stop;
#X floatatom 157 157 5 0 0 0 - - -;
#X obj 102 398 hip~ 2500;
#X obj 106 198 int;
#X obj 132 198 + 1;
#X obj 108 29 inlet;
#X obj 102 429 outlet~;
#X msg 159 323 0 10;
#X obj 106 234 sel 0 1 2 3 4 5;
#X obj 106 219 mod 6;
#X obj 106 177 metro 50;
#X obj 157 118 random 30;
#X obj 157 137 + 30;
#X obj 133 303 del 30;
#X msg 105 324 6430 100;
#X connect 0 0 7 0;
#X connect 1 0 0 0;
#X connect 2 0 19 0;
#X connect 2 1 18 0;
#X connect 3 0 2 0;
#X connect 4 0 15 0;
#X connect 4 0 16 0;
#X connect 5 0 15 0;
#X connect 6 0 15 1;
#X connect 7 0 11 0;
#X connect 8 0 9 0;
#X connect 8 0 14 0;
#X connect 9 0 8 1;
#X connect 10 0 4 0;
#X connect 12 0 1 0;
#X connect 13 0 3 0;
#X connect 13 1 3 0;
#X connect 13 2 3 0;
#X connect 13 3 3 0;
#X connect 13 4 3 0;
#X connect 13 5 5 0;
#X connect 14 0 13 0;
#X connect 15 0 8 0;
#X connect 16 0 17 0;
#X connect 17 0 6 0;
#X connect 18 0 12 0;
#X connect 19 0 1 0;
#X restore -322 -326 pd tweetah;
#X obj -322 -349 sel 0 1 2 3;
#N canvas 596 96 450 519 tweetah2 0;
#X obj 103 375 osc~;
#X obj 104 353 line~;
#X obj 105 282 t b b;
#X obj 105 263 bng 15 250 50 0 empty empty empty 17 7 0 10 -262144
-1 -1;
#X obj 104 69 bng 15 250 50 0 empty empty empty 17 7 0 10 -262144 -1
-1;
#X msg 153 259 stop;
#X floatatom 157 157 5 0 0 0 - - -;
#X obj 106 177 metro 100;
#X obj 102 398 hip~ 2500;
#X obj 106 239 sel 0 1 2 3;
#X obj 106 219 mod 4;
#X obj 106 198 int;
#X obj 132 198 + 1;
#X obj 108 29 inlet;
#X obj 102 429 outlet~;
#X msg 159 323 0 100;
#X obj 153 299 del 100;
#X obj 155 108 random 100;
#X obj 156 136 + 70;
#X msg 105 321 3700 400;
#X connect 0 0 8 0;
#X connect 1 0 0 0;
#X connect 2 0 19 0;
#X connect 2 1 16 0;
#X connect 3 0 2 0;
#X connect 4 0 7 0;
#X connect 4 0 17 0;
#X connect 5 0 7 0;
#X connect 6 0 7 1;
#X connect 7 0 11 0;
#X connect 8 0 14 0;
#X connect 9 0 3 0;
#X connect 9 1 3 0;
#X connect 9 2 3 0;
#X connect 9 3 5 0;
#X connect 10 0 9 0;
#X connect 11 0 12 0;
#X connect 11 0 10 0;
#X connect 12 0 11 1;
#X connect 13 0 4 0;
#X connect 15 0 1 0;
#X connect 16 0 15 0;
#X connect 17 0 18 0;
#X connect 18 0 6 0;
#X connect 19 0 1 0;
#X restore -308 -306 pd tweetah2;
#X obj -322 -408 bng 15 250 50 0 empty empty empty 17 7 0 10 -262144
-1 -1;
#N canvas 436 93 450 519 tweetah3 0;
#X obj 103 375 osc~;
#X obj 104 353 line~;
#X obj 105 282 t b b;
#X obj 105 263 bng 15 250 50 0 empty empty empty 17 7 0 10 -262144
-1 -1;
#X obj 104 69 bng 15 250 50 0 empty empty empty 17 7 0 10 -262144 -1
-1;
#X msg 153 259 stop;
#X floatatom 157 157 5 0 0 0 - - -;
#X obj 106 177 metro 100;
#X obj 102 398 hip~ 2500;
#X obj 157 137 + 70;
#X obj 106 239 sel 0 1 2 3;
#X obj 106 219 mod 4;
#X obj 106 198 int;
#X obj 132 198 + 1;
#X obj 157 118 random 70;
#X obj 108 29 inlet;
#X obj 103 425 outlet~;
#X msg 158 323 0 10;
#X msg 105 324 7000 100;
#X obj 132 303 del 40;
#X connect 0 0 8 0;
#X connect 1 0 0 0;
#X connect 2 0 18 0;
#X connect 2 1 19 0;
#X connect 3 0 2 0;
#X connect 4 0 7 0;
#X connect 4 0 14 0;
#X connect 5 0 7 0;
#X connect 6 0 7 1;
#X connect 7 0 12 0;
#X connect 8 0 16 0;
#X connect 9 0 6 0;
#X connect 10 0 3 0;
#X connect 10 1 3 0;
#X connect 10 2 3 0;
#X connect 10 3 5 0;
#X connect 11 0 10 0;
#X connect 12 0 13 0;
#X connect 12 0 11 0;
#X connect 13 0 12 1;
#X connect 14 0 9 0;
#X connect 15 0 4 0;
#X connect 17 0 1 0;
#X connect 18 0 1 0;
#X connect 19 0 17 0;
#X restore -290 -285 pd tweetah3;
#N canvas 436 93 450 519 tweetah4 0;
#X obj 95 374 osc~;
#X obj 104 353 line~;
#X obj 105 282 t b b;
#X obj 105 263 bng 15 250 50 0 empty empty empty 17 7 0 10 -262144
-1 -1;
#X obj 104 69 bng 15 250 50 0 empty empty empty 17 7 0 10 -262144 -1
-1;
#X msg 153 259 stop;
#X floatatom 157 157 5 0 0 0 - - -;
#X obj 106 177 metro 100;
#X obj 82 430 hip~ 2500;
#X obj 157 137 + 70;
#X obj 106 239 sel 0 1 2 3;
#X obj 106 219 mod 4;
#X obj 106 198 int;
#X obj 132 198 + 1;
#X obj 157 118 random 70;
#X obj 108 29 inlet;
#X obj 82 461 outlet~;
#X msg 105 323 2000 100;
#X msg 159 323 0 10;
#X obj 132 303 del 80;
#X connect 0 0 8 0;
#X connect 1 0 0 0;
#X connect 2 0 17 0;
#X connect 2 1 19 0;
#X connect 3 0 2 0;
#X connect 4 0 7 0;
#X connect 4 0 14 0;
#X connect 5 0 7 0;
#X connect 6 0 7 1;
#X connect 7 0 12 0;
#X connect 8 0 16 0;
#X connect 9 0 6 0;
#X connect 10 0 3 0;
#X connect 10 1 3 0;
#X connect 10 2 3 0;
#X connect 10 3 5 0;
#X connect 11 0 10 0;
#X connect 12 0 13 0;
#X connect 12 0 11 0;
#X connect 13 0 12 1;
#X connect 14 0 9 0;
#X connect 15 0 4 0;
#X connect 17 0 1 0;
#X connect 18 0 1 0;
#X connect 19 0 18 0;
#X restore -275 -264 pd tweetah4;
#X floatatom -322 -369 5 0 0 0 - - -;
#X obj -322 -435 metro;
#X obj -265 -476 + 1250;
#X floatatom -265 -456 5 0 0 0 - - -;
#X obj -265 -497 random 2000;
#X obj -323 -389 random 4;
#X obj -322 -496 loadbang;
#X connect 1 0 0 0;
#X connect 2 0 1 0;
#X connect 2 1 3 0;
#X connect 2 2 5 0;
#X connect 2 3 6 0;
#X connect 3 0 0 1;
#X connect 4 0 12 0;
#X connect 5 0 0 0;
#X connect 6 0 0 1;
#X connect 7 0 2 0;
#X connect 8 0 4 0;
#X connect 8 0 11 0;
#X connect 9 0 10 0;
#X connect 10 0 8 1;
#X connect 11 0 9 0;
#X connect 12 0 7 0;
#X connect 13 0 8 0;
