#N canvas 415 105 329 561 10;
#X obj 122 462 dac~;
#X obj 139 178 int;
#X obj 178 177 + 1;
#X obj 139 154 bng 15 250 50 0 empty empty empty 17 7 0 10 -262144
-1 -1;
#X floatatom 139 223 5 0 0 0 - - -;
#X obj 140 300 tgl 15 0 empty empty empty 17 7 0 10 -262144 -1 -1 0
1;
#X obj 125 333 *~;
#X obj 130 82 bng 15 250 50 0 empty empty empty 17 7 0 10 -262144 -1
-1;
#X obj 128 395 hip~ 100;
#X obj 166 88 random 400;
#X obj 166 110 + 200;
#X obj 139 131 metro;
#X floatatom 179 130 5 0 0 0 - - -;
#X obj 120 27 random 2;
#X obj 120 52 sel 0 1;
#X obj 120 6 bng 15 250 50 0 empty empty empty 17 7 0 10 -262144 -1
-1;
#X obj 120 -17 metro;
#X floatatom 160 -18 5 0 0 0 - - -;
#X obj 127 374 lop~ 300;
#X obj 139 201 mod 3;
#X obj 140 247 sel 0 1 2;
#X msg 193 273 stop;
#X msg 140 273 1;
#X msg 165 273 0;
#X obj 76 -50 bng 15 250 50 0 empty empty empty 17 7 0 10 -262144 -1
-1;
#X obj 60 228 hsl 128 15 300 500 0 0 empty empty empty -2 -8 0 10 -262144
-1 -1 2794 1;
#X obj 93 266 * 1.3;
#X obj 55 336 *~ 0.5;
#X obj 57 286 phasor~ 330;
#X obj 56 311 phasor~ 550;
#X obj 56 198 + 300;
#X obj 56 177 random 50;
#X obj 127 428 lop~ 100;
#X obj 9 310 line~;
#X msg 9 290 1 10;
#X obj 47 369 *~;
#X obj 147 -60 random 30000;
#X obj 147 -39 + 30000;
#X text 16 -61 HONK;
#X obj 190 414 freeverb~;
#X connect 1 0 2 0;
#X connect 1 0 19 0;
#X connect 2 0 1 1;
#X connect 3 0 1 0;
#X connect 4 0 20 0;
#X connect 5 0 6 1;
#X connect 6 0 18 0;
#X connect 7 0 11 0;
#X connect 7 0 9 0;
#X connect 7 0 31 0;
#X connect 7 0 34 0;
#X connect 8 0 32 0;
#X connect 8 0 39 0;
#X connect 8 0 39 1;
#X connect 9 0 10 0;
#X connect 10 0 11 1;
#X connect 10 0 12 0;
#X connect 11 0 3 0;
#X connect 11 0 9 0;
#X connect 13 0 14 0;
#X connect 14 1 7 0;
#X connect 15 0 13 0;
#X connect 16 0 15 0;
#X connect 16 0 36 0;
#X connect 18 0 8 0;
#X connect 19 0 4 0;
#X connect 20 0 22 0;
#X connect 20 1 23 0;
#X connect 20 2 21 0;
#X connect 21 0 11 0;
#X connect 22 0 5 0;
#X connect 23 0 5 0;
#X connect 24 0 16 0;
#X connect 25 0 26 0;
#X connect 25 0 28 0;
#X connect 26 0 29 0;
#X connect 27 0 35 0;
#X connect 28 0 27 0;
#X connect 29 0 27 0;
#X connect 30 0 25 0;
#X connect 31 0 30 0;
#X connect 32 0 0 0;
#X connect 32 0 0 1;
#X connect 33 0 35 1;
#X connect 34 0 33 0;
#X connect 35 0 6 0;
#X connect 36 0 37 0;
#X connect 37 0 16 1;
#X connect 37 0 17 0;
#X connect 39 0 0 0;
#X connect 39 1 0 1;
