#N canvas 499 51 712 599 10;
#X obj 21 114 noise~;
#X obj 284 558 dac~;
#X obj 207 179 line~;
#X obj 62 263 *~;
#X msg 241 154 1 0;
#X obj 81 110 line;
#X obj 151 147 line;
#X msg 89 89 0 2000;
#X obj 89 69 del 2000;
#X obj 190 -1 bng 15 250 50 0 empty empty empty 17 7 0 10 -262144 -1
-1;
#X obj 32 231 hip~;
#X msg 135 106 set 10000;
#X obj 50 32 t b b b b;
#X obj 21 135 lop~;
#X obj 340 488 freeverb~;
#X msg 203 154 0 20;
#X obj 341 138 phasor~ 67;
#X obj 230 378 +~;
#X obj 207 114 metro 100;
#X obj 241 134 del 90;
#X obj 447 132 line;
#X obj 467 194 line;
#X msg 447 111 0 2000;
#X obj 447 92 del 2000;
#X obj 433 58 t b b b b;
#X obj 446 215 hip~;
#X obj 426 174 lop~;
#X obj 445 237 *~ 0.2;
#X msg 30 88 300 2000;
#X msg 467 173 30 2000;
#X obj 341 156 lop~ 500;
#X msg 391 111 200 2000;
#X obj 517 156 del 4000;
#X obj 135 89 del 4000;
#X msg 152 127 30 2000;
#X obj 340 514 *~ 0.4;
#X obj 391 514 *~ 0.4;
#X obj 326 411 line~;
#X msg 326 386 1 10;
#X obj 311 433 *~;
#X obj 362 367 del 4000;
#X msg 362 387 0 10;
#X obj 326 346 t b b;
#X obj 207 89 loadbang;
#X msg 517 176 set 700;
#X obj 311 456 lop~ 650;
#X connect 0 0 13 0;
#X connect 2 0 3 1;
#X connect 3 0 17 0;
#X connect 4 0 2 0;
#X connect 5 0 13 1;
#X connect 6 0 10 1;
#X connect 7 0 5 0;
#X connect 8 0 7 0;
#X connect 9 0 12 0;
#X connect 9 0 24 0;
#X connect 9 0 42 0;
#X connect 10 0 3 0;
#X connect 11 0 6 0;
#X connect 12 0 28 0;
#X connect 12 1 8 0;
#X connect 12 2 33 0;
#X connect 12 3 34 0;
#X connect 13 0 10 0;
#X connect 14 0 35 0;
#X connect 14 1 36 0;
#X connect 15 0 2 0;
#X connect 16 0 30 0;
#X connect 17 0 39 0;
#X connect 18 0 15 0;
#X connect 18 0 19 0;
#X connect 19 0 4 0;
#X connect 20 0 26 1;
#X connect 21 0 25 1;
#X connect 22 0 20 0;
#X connect 23 0 22 0;
#X connect 24 0 31 0;
#X connect 24 1 23 0;
#X connect 24 2 29 0;
#X connect 24 3 32 0;
#X connect 25 0 27 0;
#X connect 26 0 25 0;
#X connect 27 0 17 1;
#X connect 28 0 5 0;
#X connect 29 0 21 0;
#X connect 30 0 26 0;
#X connect 31 0 20 0;
#X connect 32 0 44 0;
#X connect 33 0 11 0;
#X connect 34 0 6 0;
#X connect 35 0 1 0;
#X connect 36 0 1 1;
#X connect 37 0 39 1;
#X connect 38 0 37 0;
#X connect 39 0 45 0;
#X connect 40 0 41 0;
#X connect 41 0 37 0;
#X connect 42 0 38 0;
#X connect 42 1 40 0;
#X connect 43 0 18 0;
#X connect 44 0 21 0;
#X connect 45 0 1 0;
#X connect 45 0 1 1;
#X connect 45 0 14 0;
#X connect 45 0 14 1;
