#N canvas 308 93 1069 476 10;
#X obj 5 80 noise~;
#X obj 10 181 *~;
#X obj 6 50 t b b b;
#X obj 392 -66 bng 15 250 50 0 empty empty empty 17 7 0 10 -262144
-1 -1;
#X obj 935 211 *~;
#X obj 943 156 osc~;
#X msg 997 138 1 10;
#X obj 1017 106 del 10;
#X obj 1012 199 line~;
#X msg 1030 140 0 70;
#X obj 205 76 noise~;
#X obj 210 177 *~;
#X obj 206 46 t b b b;
#X obj 277 143 line~;
#X obj 211 217 bp~ 700 3;
#X obj 376 69 noise~;
#X obj 381 170 *~;
#X obj 377 39 t b b b;
#X obj 448 136 line~;
#X obj 553 73 noise~;
#X obj 558 174 *~;
#X obj 554 43 t b b b;
#X msg 610 79 1 10;
#X obj 630 47 del 10;
#X obj 625 140 line~;
#X obj 714 162 noise~;
#X obj 723 139 sig~;
#X obj 723 118 line;
#X obj 714 183 vcf~ 10;
#X obj 723 39 t b b;
#X obj 734 71 del 10;
#X obj 212 350 *~;
#X obj 249 377 dac~;
#X obj 9 267 dac~;
#X obj 228 256 dac~;
#X obj 372 257 dac~;
#X obj 551 258 dac~;
#X obj 938 253 dac~;
#X obj 712 226 dac~;
#X msg 695 94 500;
#X obj 383 210 bp~ 3000 3;
#X obj 77 147 line~;
#X msg 57 88 1 200;
#X obj 83 55 del 200;
#X msg 98 87 0 700;
#X msg 433 75 1 50;
#X obj 453 42 del 50;
#X obj 553 213 bp~ 3000 2;
#X msg 864 127 100;
#X floatatom 901 114 5 0 0 0 - - -;
#X obj 900 132 sig~;
#X obj 901 91 line;
#X obj 951 19 t b b b b;
#X obj 889 32 del 10;
#X msg 892 62 0 100;
#X msg 867 63 150;
#X msg 728 94 0 400;
#X obj 10 220 bp~ 100 3;
#X msg 300 82 0 1000;
#X msg 262 82 1 200;
#X obj 282 50 del 200;
#X msg 468 77 0 200;
#X msg 644 81 0 150;
#X connect 0 0 1 0;
#X connect 1 0 57 0;
#X connect 2 1 42 0;
#X connect 2 2 43 0;
#X connect 3 0 52 0;
#X connect 3 0 2 0;
#X connect 3 0 17 0;
#X connect 3 0 21 0;
#X connect 3 0 29 0;
#X connect 3 0 12 0;
#X connect 4 0 31 1;
#X connect 4 0 37 0;
#X connect 4 0 37 1;
#X connect 4 0 31 0;
#X connect 5 0 4 0;
#X connect 6 0 8 0;
#X connect 7 0 9 0;
#X connect 8 0 4 1;
#X connect 9 0 8 0;
#X connect 10 0 11 0;
#X connect 11 0 14 0;
#X connect 12 1 59 0;
#X connect 12 2 60 0;
#X connect 13 0 11 1;
#X connect 14 0 31 0;
#X connect 14 0 31 1;
#X connect 15 0 16 0;
#X connect 16 0 40 0;
#X connect 17 1 45 0;
#X connect 17 2 46 0;
#X connect 18 0 16 1;
#X connect 19 0 20 0;
#X connect 20 0 47 0;
#X connect 21 1 22 0;
#X connect 21 2 23 0;
#X connect 22 0 24 0;
#X connect 23 0 62 0;
#X connect 24 0 20 1;
#X connect 25 0 28 0;
#X connect 26 0 28 1;
#X connect 27 0 26 0;
#X connect 28 0 31 1;
#X connect 28 0 38 0;
#X connect 28 0 38 1;
#X connect 28 1 31 1;
#X connect 29 0 39 0;
#X connect 29 1 30 0;
#X connect 30 0 56 0;
#X connect 31 0 32 0;
#X connect 31 0 32 1;
#X connect 39 0 27 0;
#X connect 40 0 31 0;
#X connect 40 0 31 1;
#X connect 41 0 1 1;
#X connect 42 0 41 0;
#X connect 43 0 44 0;
#X connect 44 0 41 0;
#X connect 45 0 18 0;
#X connect 46 0 61 0;
#X connect 47 0 31 0;
#X connect 47 0 31 1;
#X connect 47 0 36 0;
#X connect 47 0 36 1;
#X connect 48 0 5 0;
#X connect 49 0 50 0;
#X connect 50 0 5 0;
#X connect 51 0 49 0;
#X connect 52 0 55 0;
#X connect 52 1 6 0;
#X connect 52 2 7 0;
#X connect 52 3 53 0;
#X connect 53 0 54 0;
#X connect 54 0 51 0;
#X connect 55 0 51 0;
#X connect 56 0 27 0;
#X connect 57 0 33 0;
#X connect 57 0 33 1;
#X connect 57 0 31 0;
#X connect 57 0 31 1;
#X connect 58 0 13 0;
#X connect 59 0 13 0;
#X connect 60 0 58 0;
#X connect 61 0 18 0;
#X connect 62 0 24 0;
