#N canvas 146 5 527 535 10;
#X obj -66 212 hradio 15 1 0 8 empty empty empty 0 -8 0 10 -262144
-1 -1 6;
#X obj -66 176 bng 15 250 50 0 empty empty empty 17 7 0 10 -262144
-1 -1;
#X obj -66 229 sel 0 1 2 3 4 5 6 7;
#X obj -41 284 + 1;
#X floatatom -66 329 5 0 0 0 - - -;
#X obj -66 304 mod 2;
#X obj -66 284 int;
#X obj -66 349 sel 0 1;
#N canvas 520 180 450 455 chimer 0;
#X obj 0 314 *~;
#X obj 86 182 line~;
#X obj -112 96 sig~;
#X obj -112 72 mtof;
#X obj -170 152 osc~;
#X obj -132 152 osc~;
#X obj -78 151 osc~;
#X obj -26 151 osc~;
#X obj 29 151 osc~;
#X obj -170 131 *~ 1;
#X obj 28 128 *~ 15.07;
#X obj -26 130 *~ 7.701;
#X obj -78 131 *~ 4.939;
#X obj -92 207 *~ 0.2;
#X msg 86 125 1 \, 0 1500;
#X obj -112 45 inlet;
#X obj 5 361 outlet~;
#X obj 87 108 bng 15 250 50 0 empty empty empty 17 7 0 10 -262144 -1
-1;
#X obj 102 243 random 10;
#X obj 71 278 /~ 10;
#X obj -133 131 *~ 2.647;
#X connect 0 0 16 0;
#X connect 1 0 19 0;
#X connect 2 0 10 0;
#X connect 2 0 9 0;
#X connect 2 0 12 0;
#X connect 2 0 11 0;
#X connect 2 0 20 0;
#X connect 3 0 2 0;
#X connect 4 0 13 0;
#X connect 5 0 13 0;
#X connect 6 0 13 0;
#X connect 7 0 13 0;
#X connect 8 0 13 0;
#X connect 9 0 4 0;
#X connect 10 0 8 0;
#X connect 11 0 7 0;
#X connect 12 0 6 0;
#X connect 13 0 0 0;
#X connect 14 0 1 0;
#X connect 15 0 3 0;
#X connect 15 0 17 0;
#X connect 17 0 14 0;
#X connect 17 0 18 0;
#X connect 18 0 19 1;
#X connect 19 0 0 1;
#X connect 20 0 5 0;
#X restore -66 393 pd chimer;
#N canvas 520 180 450 455 chimer 0;
#X obj 0 314 *~;
#X obj 86 182 line~;
#X obj -112 96 sig~;
#X obj -112 72 mtof;
#X obj -170 152 osc~;
#X obj -132 152 osc~;
#X obj -78 151 osc~;
#X obj -26 151 osc~;
#X obj 29 151 osc~;
#X obj -170 131 *~ 1;
#X obj -133 131 *~ 2.647;
#X obj 28 128 *~ 15.07;
#X obj -26 130 *~ 7.701;
#X obj -78 131 *~ 4.939;
#X obj -92 207 *~ 0.2;
#X msg 86 125 1 \, 0 1500;
#X obj -112 45 inlet;
#X obj 5 361 outlet~;
#X obj 87 108 bng 15 250 50 0 empty empty empty 17 7 0 10 -262144 -1
-1;
#X obj 102 243 random 10;
#X obj 71 278 /~ 10;
#X connect 0 0 17 0;
#X connect 1 0 20 0;
#X connect 2 0 11 0;
#X connect 2 0 9 0;
#X connect 2 0 10 0;
#X connect 2 0 13 0;
#X connect 2 0 12 0;
#X connect 3 0 2 0;
#X connect 4 0 14 0;
#X connect 5 0 14 0;
#X connect 6 0 14 0;
#X connect 7 0 14 0;
#X connect 8 0 14 0;
#X connect 9 0 4 0;
#X connect 10 0 5 0;
#X connect 11 0 8 0;
#X connect 12 0 7 0;
#X connect 13 0 6 0;
#X connect 14 0 0 0;
#X connect 15 0 1 0;
#X connect 16 0 3 0;
#X connect 16 0 18 0;
#X connect 18 0 15 0;
#X connect 18 0 19 0;
#X connect 19 0 20 1;
#X connect 20 0 0 1;
#X restore -47 435 pd chimer;
#X obj -66 263 bng 15 250 50 0 empty empty empty 17 7 0 10 -262144
-1 -1;
#X floatatom -15 137 5 0 0 0 - - -;
#X obj -66 156 metro 500;
#X obj -15 75 metro 500;
#X msg -66 371 71;
#X msg -47 413 71;
#X obj 20 284 + 1;
#X floatatom -5 329 5 0 0 0 - - -;
#X obj -5 304 mod 2;
#X obj -5 284 int;
#X obj -5 349 sel 0 1;
#N canvas 520 180 450 455 chimer 0;
#X obj 0 314 *~;
#X obj 86 182 line~;
#X obj -112 96 sig~;
#X obj -112 72 mtof;
#X obj -170 152 osc~;
#X obj -132 152 osc~;
#X obj -78 151 osc~;
#X obj -26 151 osc~;
#X obj 29 151 osc~;
#X obj -170 131 *~ 1;
#X obj -133 131 *~ 2.647;
#X obj 28 128 *~ 15.07;
#X obj -26 130 *~ 7.701;
#X obj -78 131 *~ 4.939;
#X obj -92 207 *~ 0.2;
#X msg 86 125 1 \, 0 1500;
#X obj -112 45 inlet;
#X obj 5 361 outlet~;
#X obj 87 108 bng 15 250 50 0 empty empty empty 17 7 0 10 -262144 -1
-1;
#X obj 102 243 random 10;
#X obj 71 278 /~ 10;
#X connect 0 0 17 0;
#X connect 1 0 20 0;
#X connect 2 0 11 0;
#X connect 2 0 9 0;
#X connect 2 0 10 0;
#X connect 2 0 13 0;
#X connect 2 0 12 0;
#X connect 3 0 2 0;
#X connect 4 0 14 0;
#X connect 5 0 14 0;
#X connect 6 0 14 0;
#X connect 7 0 14 0;
#X connect 8 0 14 0;
#X connect 9 0 4 0;
#X connect 10 0 5 0;
#X connect 11 0 8 0;
#X connect 12 0 7 0;
#X connect 13 0 6 0;
#X connect 14 0 0 0;
#X connect 15 0 1 0;
#X connect 16 0 3 0;
#X connect 16 0 18 0;
#X connect 18 0 15 0;
#X connect 18 0 19 0;
#X connect 19 0 20 1;
#X connect 20 0 0 1;
#X restore -5 393 pd chimer;
#N canvas 520 180 450 455 chimer 0;
#X obj 0 314 *~;
#X obj 86 182 line~;
#X obj -112 96 sig~;
#X obj -112 72 mtof;
#X obj -170 152 osc~;
#X obj -132 152 osc~;
#X obj -78 151 osc~;
#X obj -26 151 osc~;
#X obj 29 151 osc~;
#X obj -170 131 *~ 1;
#X obj -133 131 *~ 2.647;
#X obj 28 128 *~ 15.07;
#X obj -26 130 *~ 7.701;
#X obj -78 131 *~ 4.939;
#X obj -92 207 *~ 0.2;
#X msg 86 125 1 \, 0 1500;
#X obj -112 45 inlet;
#X obj 5 361 outlet~;
#X obj 87 108 bng 15 250 50 0 empty empty empty 17 7 0 10 -262144 -1
-1;
#X obj 102 243 random 10;
#X obj 71 278 /~ 10;
#X connect 0 0 17 0;
#X connect 1 0 20 0;
#X connect 2 0 11 0;
#X connect 2 0 9 0;
#X connect 2 0 10 0;
#X connect 2 0 13 0;
#X connect 2 0 12 0;
#X connect 3 0 2 0;
#X connect 4 0 14 0;
#X connect 5 0 14 0;
#X connect 6 0 14 0;
#X connect 7 0 14 0;
#X connect 8 0 14 0;
#X connect 9 0 4 0;
#X connect 10 0 5 0;
#X connect 11 0 8 0;
#X connect 12 0 7 0;
#X connect 13 0 6 0;
#X connect 14 0 0 0;
#X connect 15 0 1 0;
#X connect 16 0 3 0;
#X connect 16 0 18 0;
#X connect 18 0 15 0;
#X connect 18 0 19 0;
#X connect 19 0 20 1;
#X connect 20 0 0 1;
#X restore 14 435 pd chimer;
#X obj -5 263 bng 15 250 50 0 empty empty empty 17 7 0 10 -262144 -1
-1;
#X obj 83 284 + 1;
#X floatatom 58 329 5 0 0 0 - - -;
#X obj 58 304 mod 2;
#X obj 58 284 int;
#X obj 58 349 sel 0 1;
#N canvas 520 180 450 455 chimer 0;
#X obj 0 314 *~;
#X obj 86 182 line~;
#X obj -112 96 sig~;
#X obj -112 72 mtof;
#X obj -170 152 osc~;
#X obj -132 152 osc~;
#X obj -78 151 osc~;
#X obj -26 151 osc~;
#X obj 29 151 osc~;
#X obj -170 131 *~ 1;
#X obj -133 131 *~ 2.647;
#X obj 28 128 *~ 15.07;
#X obj -26 130 *~ 7.701;
#X obj -78 131 *~ 4.939;
#X obj -92 207 *~ 0.2;
#X msg 86 125 1 \, 0 1500;
#X obj -112 45 inlet;
#X obj 5 361 outlet~;
#X obj 87 108 bng 15 250 50 0 empty empty empty 17 7 0 10 -262144 -1
-1;
#X obj 102 243 random 10;
#X obj 71 278 /~ 10;
#X connect 0 0 17 0;
#X connect 1 0 20 0;
#X connect 2 0 11 0;
#X connect 2 0 9 0;
#X connect 2 0 10 0;
#X connect 2 0 13 0;
#X connect 2 0 12 0;
#X connect 3 0 2 0;
#X connect 4 0 14 0;
#X connect 5 0 14 0;
#X connect 6 0 14 0;
#X connect 7 0 14 0;
#X connect 8 0 14 0;
#X connect 9 0 4 0;
#X connect 10 0 5 0;
#X connect 11 0 8 0;
#X connect 12 0 7 0;
#X connect 13 0 6 0;
#X connect 14 0 0 0;
#X connect 15 0 1 0;
#X connect 16 0 3 0;
#X connect 16 0 18 0;
#X connect 18 0 15 0;
#X connect 18 0 19 0;
#X connect 19 0 20 1;
#X connect 20 0 0 1;
#X restore 58 393 pd chimer;
#N canvas 520 180 450 455 chimer 0;
#X obj 0 314 *~;
#X obj 86 182 line~;
#X obj -112 96 sig~;
#X obj -112 72 mtof;
#X obj -170 152 osc~;
#X obj -132 152 osc~;
#X obj -78 151 osc~;
#X obj -26 151 osc~;
#X obj 29 151 osc~;
#X obj -170 131 *~ 1;
#X obj -133 131 *~ 2.647;
#X obj 28 128 *~ 15.07;
#X obj -26 130 *~ 7.701;
#X obj -78 131 *~ 4.939;
#X obj -92 207 *~ 0.2;
#X msg 86 125 1 \, 0 1500;
#X obj -112 45 inlet;
#X obj 5 361 outlet~;
#X obj 87 108 bng 15 250 50 0 empty empty empty 17 7 0 10 -262144 -1
-1;
#X obj 102 243 random 10;
#X obj 71 278 /~ 10;
#X connect 0 0 17 0;
#X connect 1 0 20 0;
#X connect 2 0 11 0;
#X connect 2 0 9 0;
#X connect 2 0 10 0;
#X connect 2 0 13 0;
#X connect 2 0 12 0;
#X connect 3 0 2 0;
#X connect 4 0 14 0;
#X connect 5 0 14 0;
#X connect 6 0 14 0;
#X connect 7 0 14 0;
#X connect 8 0 14 0;
#X connect 9 0 4 0;
#X connect 10 0 5 0;
#X connect 11 0 8 0;
#X connect 12 0 7 0;
#X connect 13 0 6 0;
#X connect 14 0 0 0;
#X connect 15 0 1 0;
#X connect 16 0 3 0;
#X connect 16 0 18 0;
#X connect 18 0 15 0;
#X connect 18 0 19 0;
#X connect 19 0 20 1;
#X connect 20 0 0 1;
#X restore 77 435 pd chimer;
#X obj 58 263 bng 15 250 50 0 empty empty empty 17 7 0 10 -262144 -1
-1;
#X obj 149 284 + 1;
#X floatatom 124 329 5 0 0 0 - - -;
#X obj 124 304 mod 2;
#X obj 124 284 int;
#X obj 124 352 sel 0 1;
#N canvas 520 180 450 455 chimer 0;
#X obj 0 314 *~;
#X obj 86 182 line~;
#X obj -112 96 sig~;
#X obj -112 72 mtof;
#X obj -170 152 osc~;
#X obj -132 152 osc~;
#X obj -78 151 osc~;
#X obj -26 151 osc~;
#X obj 29 151 osc~;
#X obj -170 131 *~ 1;
#X obj -133 131 *~ 2.647;
#X obj 28 128 *~ 15.07;
#X obj -26 130 *~ 7.701;
#X obj -78 131 *~ 4.939;
#X obj -92 207 *~ 0.2;
#X msg 86 125 1 \, 0 1500;
#X obj -112 45 inlet;
#X obj 5 361 outlet~;
#X obj 87 108 bng 15 250 50 0 empty empty empty 17 7 0 10 -262144 -1
-1;
#X obj 102 243 random 10;
#X obj 71 278 /~ 10;
#X connect 0 0 17 0;
#X connect 1 0 20 0;
#X connect 2 0 11 0;
#X connect 2 0 9 0;
#X connect 2 0 10 0;
#X connect 2 0 13 0;
#X connect 2 0 12 0;
#X connect 3 0 2 0;
#X connect 4 0 14 0;
#X connect 5 0 14 0;
#X connect 6 0 14 0;
#X connect 7 0 14 0;
#X connect 8 0 14 0;
#X connect 9 0 4 0;
#X connect 10 0 5 0;
#X connect 11 0 8 0;
#X connect 12 0 7 0;
#X connect 13 0 6 0;
#X connect 14 0 0 0;
#X connect 15 0 1 0;
#X connect 16 0 3 0;
#X connect 16 0 18 0;
#X connect 18 0 15 0;
#X connect 18 0 19 0;
#X connect 19 0 20 1;
#X connect 20 0 0 1;
#X restore 124 393 pd chimer;
#N canvas 520 180 450 455 chimer 0;
#X obj 0 314 *~;
#X obj 86 182 line~;
#X obj -112 96 sig~;
#X obj -112 72 mtof;
#X obj -170 152 osc~;
#X obj -132 152 osc~;
#X obj -78 151 osc~;
#X obj -26 151 osc~;
#X obj 29 151 osc~;
#X obj -170 131 *~ 1;
#X obj -133 131 *~ 2.647;
#X obj 28 128 *~ 15.07;
#X obj -26 130 *~ 7.701;
#X obj -78 131 *~ 4.939;
#X obj -92 207 *~ 0.2;
#X msg 86 125 1 \, 0 1500;
#X obj -112 45 inlet;
#X obj 5 361 outlet~;
#X obj 87 108 bng 15 250 50 0 empty empty empty 17 7 0 10 -262144 -1
-1;
#X obj 102 243 random 10;
#X obj 71 278 /~ 10;
#X connect 0 0 17 0;
#X connect 1 0 20 0;
#X connect 2 0 11 0;
#X connect 2 0 9 0;
#X connect 2 0 10 0;
#X connect 2 0 13 0;
#X connect 2 0 12 0;
#X connect 3 0 2 0;
#X connect 4 0 14 0;
#X connect 5 0 14 0;
#X connect 6 0 14 0;
#X connect 7 0 14 0;
#X connect 8 0 14 0;
#X connect 9 0 4 0;
#X connect 10 0 5 0;
#X connect 11 0 8 0;
#X connect 12 0 7 0;
#X connect 13 0 6 0;
#X connect 14 0 0 0;
#X connect 15 0 1 0;
#X connect 16 0 3 0;
#X connect 16 0 18 0;
#X connect 18 0 15 0;
#X connect 18 0 19 0;
#X connect 19 0 20 1;
#X connect 20 0 0 1;
#X restore 143 434 pd chimer;
#X obj 124 263 bng 15 250 50 0 empty empty empty 17 7 0 10 -262144
-1 -1;
#X obj 211 284 + 1;
#X floatatom 186 329 5 0 0 0 - - -;
#X obj 186 304 mod 2;
#X obj 186 284 int;
#X obj 186 349 sel 0 1;
#N canvas 520 180 450 455 chimer 0;
#X obj 0 314 *~;
#X obj 86 182 line~;
#X obj -112 96 sig~;
#X obj -112 72 mtof;
#X obj -170 152 osc~;
#X obj -132 152 osc~;
#X obj -78 151 osc~;
#X obj -26 151 osc~;
#X obj 29 151 osc~;
#X obj -170 131 *~ 1;
#X obj -133 131 *~ 2.647;
#X obj 28 128 *~ 15.07;
#X obj -26 130 *~ 7.701;
#X obj -78 131 *~ 4.939;
#X obj -92 207 *~ 0.2;
#X msg 86 125 1 \, 0 1500;
#X obj -112 45 inlet;
#X obj 5 361 outlet~;
#X obj 87 108 bng 15 250 50 0 empty empty empty 17 7 0 10 -262144 -1
-1;
#X obj 102 243 random 10;
#X obj 71 278 /~ 10;
#X connect 0 0 17 0;
#X connect 1 0 20 0;
#X connect 2 0 11 0;
#X connect 2 0 9 0;
#X connect 2 0 10 0;
#X connect 2 0 13 0;
#X connect 2 0 12 0;
#X connect 3 0 2 0;
#X connect 4 0 14 0;
#X connect 5 0 14 0;
#X connect 6 0 14 0;
#X connect 7 0 14 0;
#X connect 8 0 14 0;
#X connect 9 0 4 0;
#X connect 10 0 5 0;
#X connect 11 0 8 0;
#X connect 12 0 7 0;
#X connect 13 0 6 0;
#X connect 14 0 0 0;
#X connect 15 0 1 0;
#X connect 16 0 3 0;
#X connect 16 0 18 0;
#X connect 18 0 15 0;
#X connect 18 0 19 0;
#X connect 19 0 20 1;
#X connect 20 0 0 1;
#X restore 186 393 pd chimer;
#N canvas 520 180 450 455 chimer 0;
#X obj 0 314 *~;
#X obj 86 182 line~;
#X obj -112 96 sig~;
#X obj -112 72 mtof;
#X obj -170 152 osc~;
#X obj -132 152 osc~;
#X obj -78 151 osc~;
#X obj -26 151 osc~;
#X obj 29 151 osc~;
#X obj -170 131 *~ 1;
#X obj -133 131 *~ 2.647;
#X obj 28 128 *~ 15.07;
#X obj -26 130 *~ 7.701;
#X obj -78 131 *~ 4.939;
#X obj -92 207 *~ 0.2;
#X msg 86 125 1 \, 0 1500;
#X obj -112 45 inlet;
#X obj 5 361 outlet~;
#X obj 87 108 bng 15 250 50 0 empty empty empty 17 7 0 10 -262144 -1
-1;
#X obj 102 243 random 10;
#X obj 71 278 /~ 10;
#X connect 0 0 17 0;
#X connect 1 0 20 0;
#X connect 2 0 11 0;
#X connect 2 0 9 0;
#X connect 2 0 10 0;
#X connect 2 0 13 0;
#X connect 2 0 12 0;
#X connect 3 0 2 0;
#X connect 4 0 14 0;
#X connect 5 0 14 0;
#X connect 6 0 14 0;
#X connect 7 0 14 0;
#X connect 8 0 14 0;
#X connect 9 0 4 0;
#X connect 10 0 5 0;
#X connect 11 0 8 0;
#X connect 12 0 7 0;
#X connect 13 0 6 0;
#X connect 14 0 0 0;
#X connect 15 0 1 0;
#X connect 16 0 3 0;
#X connect 16 0 18 0;
#X connect 18 0 15 0;
#X connect 18 0 19 0;
#X connect 19 0 20 1;
#X connect 20 0 0 1;
#X restore 205 435 pd chimer;
#X obj 186 263 bng 15 250 50 0 empty empty empty 17 7 0 10 -262144
-1 -1;
#X obj 274 284 + 1;
#X floatatom 249 329 5 0 0 0 - - -;
#X obj 249 304 mod 2;
#X obj 249 284 int;
#X obj 249 349 sel 0 1;
#N canvas 520 180 450 455 chimer 0;
#X obj 0 314 *~;
#X obj 86 182 line~;
#X obj -112 96 sig~;
#X obj -112 72 mtof;
#X obj -170 152 osc~;
#X obj -132 152 osc~;
#X obj -78 151 osc~;
#X obj -26 151 osc~;
#X obj 29 151 osc~;
#X obj -170 131 *~ 1;
#X obj -133 131 *~ 2.647;
#X obj 28 128 *~ 15.07;
#X obj -26 130 *~ 7.701;
#X obj -78 131 *~ 4.939;
#X obj -92 207 *~ 0.2;
#X msg 86 125 1 \, 0 1500;
#X obj -112 45 inlet;
#X obj 5 361 outlet~;
#X obj 87 108 bng 15 250 50 0 empty empty empty 17 7 0 10 -262144 -1
-1;
#X obj 102 243 random 10;
#X obj 71 278 /~ 10;
#X connect 0 0 17 0;
#X connect 1 0 20 0;
#X connect 2 0 11 0;
#X connect 2 0 9 0;
#X connect 2 0 10 0;
#X connect 2 0 13 0;
#X connect 2 0 12 0;
#X connect 3 0 2 0;
#X connect 4 0 14 0;
#X connect 5 0 14 0;
#X connect 6 0 14 0;
#X connect 7 0 14 0;
#X connect 8 0 14 0;
#X connect 9 0 4 0;
#X connect 10 0 5 0;
#X connect 11 0 8 0;
#X connect 12 0 7 0;
#X connect 13 0 6 0;
#X connect 14 0 0 0;
#X connect 15 0 1 0;
#X connect 16 0 3 0;
#X connect 16 0 18 0;
#X connect 18 0 15 0;
#X connect 18 0 19 0;
#X connect 19 0 20 1;
#X connect 20 0 0 1;
#X restore 249 393 pd chimer;
#N canvas 520 180 450 455 chimer 0;
#X obj 0 314 *~;
#X obj 86 182 line~;
#X obj -112 96 sig~;
#X obj -112 72 mtof;
#X obj -170 152 osc~;
#X obj -132 152 osc~;
#X obj -78 151 osc~;
#X obj -26 151 osc~;
#X obj 29 151 osc~;
#X obj -170 131 *~ 1;
#X obj -133 131 *~ 2.647;
#X obj 28 128 *~ 15.07;
#X obj -26 130 *~ 7.701;
#X obj -78 131 *~ 4.939;
#X obj -92 207 *~ 0.2;
#X msg 86 125 1 \, 0 1500;
#X obj -112 45 inlet;
#X obj 5 361 outlet~;
#X obj 87 108 bng 15 250 50 0 empty empty empty 17 7 0 10 -262144 -1
-1;
#X obj 102 243 random 10;
#X obj 71 278 /~ 10;
#X connect 0 0 17 0;
#X connect 1 0 20 0;
#X connect 2 0 11 0;
#X connect 2 0 9 0;
#X connect 2 0 10 0;
#X connect 2 0 13 0;
#X connect 2 0 12 0;
#X connect 3 0 2 0;
#X connect 4 0 14 0;
#X connect 5 0 14 0;
#X connect 6 0 14 0;
#X connect 7 0 14 0;
#X connect 8 0 14 0;
#X connect 9 0 4 0;
#X connect 10 0 5 0;
#X connect 11 0 8 0;
#X connect 12 0 7 0;
#X connect 13 0 6 0;
#X connect 14 0 0 0;
#X connect 15 0 1 0;
#X connect 16 0 3 0;
#X connect 16 0 18 0;
#X connect 18 0 15 0;
#X connect 18 0 19 0;
#X connect 19 0 20 1;
#X connect 20 0 0 1;
#X restore 268 435 pd chimer;
#X obj 249 263 bng 15 250 50 0 empty empty empty 17 7 0 10 -262144
-1 -1;
#X obj 339 283 + 1;
#X floatatom 314 328 5 0 0 0 - - -;
#X obj 314 303 mod 2;
#X obj 314 283 int;
#X obj 314 348 sel 0 1;
#N canvas 520 180 450 455 chimer 0;
#X obj 0 314 *~;
#X obj 86 182 line~;
#X obj -112 96 sig~;
#X obj -112 72 mtof;
#X obj -170 152 osc~;
#X obj -132 152 osc~;
#X obj -78 151 osc~;
#X obj -26 151 osc~;
#X obj 29 151 osc~;
#X obj -170 131 *~ 1;
#X obj -133 131 *~ 2.647;
#X obj 28 128 *~ 15.07;
#X obj -26 130 *~ 7.701;
#X obj -78 131 *~ 4.939;
#X obj -92 207 *~ 0.2;
#X msg 86 125 1 \, 0 1500;
#X obj -112 45 inlet;
#X obj 5 361 outlet~;
#X obj 87 108 bng 15 250 50 0 empty empty empty 17 7 0 10 -262144 -1
-1;
#X obj 102 243 random 10;
#X obj 71 278 /~ 10;
#X connect 0 0 17 0;
#X connect 1 0 20 0;
#X connect 2 0 11 0;
#X connect 2 0 9 0;
#X connect 2 0 10 0;
#X connect 2 0 13 0;
#X connect 2 0 12 0;
#X connect 3 0 2 0;
#X connect 4 0 14 0;
#X connect 5 0 14 0;
#X connect 6 0 14 0;
#X connect 7 0 14 0;
#X connect 8 0 14 0;
#X connect 9 0 4 0;
#X connect 10 0 5 0;
#X connect 11 0 8 0;
#X connect 12 0 7 0;
#X connect 13 0 6 0;
#X connect 14 0 0 0;
#X connect 15 0 1 0;
#X connect 16 0 3 0;
#X connect 16 0 18 0;
#X connect 18 0 15 0;
#X connect 18 0 19 0;
#X connect 19 0 20 1;
#X connect 20 0 0 1;
#X restore 314 392 pd chimer;
#N canvas 520 180 450 455 chimer 0;
#X obj 0 314 *~;
#X obj 86 182 line~;
#X obj -112 96 sig~;
#X obj -112 72 mtof;
#X obj -170 152 osc~;
#X obj -132 152 osc~;
#X obj -78 151 osc~;
#X obj -26 151 osc~;
#X obj 29 151 osc~;
#X obj -170 131 *~ 1;
#X obj -133 131 *~ 2.647;
#X obj 28 128 *~ 15.07;
#X obj -26 130 *~ 7.701;
#X obj -78 131 *~ 4.939;
#X obj -92 207 *~ 0.2;
#X msg 86 125 1 \, 0 1500;
#X obj -112 45 inlet;
#X obj 5 361 outlet~;
#X obj 87 108 bng 15 250 50 0 empty empty empty 17 7 0 10 -262144 -1
-1;
#X obj 102 243 random 10;
#X obj 71 278 /~ 10;
#X connect 0 0 17 0;
#X connect 1 0 20 0;
#X connect 2 0 11 0;
#X connect 2 0 9 0;
#X connect 2 0 10 0;
#X connect 2 0 13 0;
#X connect 2 0 12 0;
#X connect 3 0 2 0;
#X connect 4 0 14 0;
#X connect 5 0 14 0;
#X connect 6 0 14 0;
#X connect 7 0 14 0;
#X connect 8 0 14 0;
#X connect 9 0 4 0;
#X connect 10 0 5 0;
#X connect 11 0 8 0;
#X connect 12 0 7 0;
#X connect 13 0 6 0;
#X connect 14 0 0 0;
#X connect 15 0 1 0;
#X connect 16 0 3 0;
#X connect 16 0 18 0;
#X connect 18 0 15 0;
#X connect 18 0 19 0;
#X connect 19 0 20 1;
#X connect 20 0 0 1;
#X restore 333 434 pd chimer;
#X obj 314 262 bng 15 250 50 0 empty empty empty 17 7 0 10 -262144
-1 -1;
#X obj 402 283 + 1;
#X floatatom 377 328 5 0 0 0 - - -;
#X obj 377 303 mod 2;
#X obj 377 283 int;
#X obj 377 348 sel 0 1;
#N canvas 520 180 450 455 chimer 0;
#X obj 0 314 *~;
#X obj 86 182 line~;
#X obj -112 96 sig~;
#X obj -112 72 mtof;
#X obj -170 152 osc~;
#X obj -132 152 osc~;
#X obj -78 151 osc~;
#X obj -26 151 osc~;
#X obj 29 151 osc~;
#X obj -170 131 *~ 1;
#X obj -133 131 *~ 2.647;
#X obj 28 128 *~ 15.07;
#X obj -26 130 *~ 7.701;
#X obj -78 131 *~ 4.939;
#X obj -92 207 *~ 0.2;
#X msg 86 125 1 \, 0 1500;
#X obj -112 45 inlet;
#X obj 5 361 outlet~;
#X obj 87 108 bng 15 250 50 0 empty empty empty 17 7 0 10 -262144 -1
-1;
#X obj 102 243 random 10;
#X obj 71 278 /~ 10;
#X connect 0 0 17 0;
#X connect 1 0 20 0;
#X connect 2 0 11 0;
#X connect 2 0 9 0;
#X connect 2 0 10 0;
#X connect 2 0 13 0;
#X connect 2 0 12 0;
#X connect 3 0 2 0;
#X connect 4 0 14 0;
#X connect 5 0 14 0;
#X connect 6 0 14 0;
#X connect 7 0 14 0;
#X connect 8 0 14 0;
#X connect 9 0 4 0;
#X connect 10 0 5 0;
#X connect 11 0 8 0;
#X connect 12 0 7 0;
#X connect 13 0 6 0;
#X connect 14 0 0 0;
#X connect 15 0 1 0;
#X connect 16 0 3 0;
#X connect 16 0 18 0;
#X connect 18 0 15 0;
#X connect 18 0 19 0;
#X connect 19 0 20 1;
#X connect 20 0 0 1;
#X restore 377 392 pd chimer;
#N canvas 520 180 450 455 chimer 0;
#X obj 0 314 *~;
#X obj 86 182 line~;
#X obj -112 96 sig~;
#X obj -112 72 mtof;
#X obj -170 152 osc~;
#X obj -132 152 osc~;
#X obj -78 151 osc~;
#X obj -26 151 osc~;
#X obj 29 151 osc~;
#X obj -170 131 *~ 1;
#X obj -133 131 *~ 2.647;
#X obj 28 128 *~ 15.07;
#X obj -26 130 *~ 7.701;
#X obj -78 131 *~ 4.939;
#X obj -92 207 *~ 0.2;
#X msg 86 125 1 \, 0 1500;
#X obj -112 45 inlet;
#X obj 5 361 outlet~;
#X obj 87 108 bng 15 250 50 0 empty empty empty 17 7 0 10 -262144 -1
-1;
#X obj 102 243 random 10;
#X obj 71 278 /~ 10;
#X connect 0 0 17 0;
#X connect 1 0 20 0;
#X connect 2 0 11 0;
#X connect 2 0 9 0;
#X connect 2 0 10 0;
#X connect 2 0 13 0;
#X connect 2 0 12 0;
#X connect 3 0 2 0;
#X connect 4 0 14 0;
#X connect 5 0 14 0;
#X connect 6 0 14 0;
#X connect 7 0 14 0;
#X connect 8 0 14 0;
#X connect 9 0 4 0;
#X connect 10 0 5 0;
#X connect 11 0 8 0;
#X connect 12 0 7 0;
#X connect 13 0 6 0;
#X connect 14 0 0 0;
#X connect 15 0 1 0;
#X connect 16 0 3 0;
#X connect 16 0 18 0;
#X connect 18 0 15 0;
#X connect 18 0 19 0;
#X connect 19 0 20 1;
#X connect 20 0 0 1;
#X restore 396 434 pd chimer;
#X obj 377 262 bng 15 250 50 0 empty empty empty 17 7 0 10 -262144
-1 -1;
#X msg 14 413 73;
#X msg 77 413 75;
#X msg 124 374 77;
#X msg 143 413 77;
#X msg 186 371 79;
#X msg 205 413 79;
#X msg 249 371 81;
#X msg 268 413 81;
#X msg 314 370 83;
#X msg 333 412 83;
#X msg 377 370 85;
#X msg 396 412 85;
#X obj -17 57 bng 15 250 50 0 empty empty empty 17 7 0 10 -262144 -1
-1;
#X obj -15 97 random 700;
#X obj -15 116 + 200;
#X obj -14 30 loadbang;
#X obj -66 193 random 8;
#X msg -5 371 73;
#X msg 58 371 75;
#X obj 142 508 dac~;
#X connect 0 0 2 0;
#X connect 1 0 88 0;
#X connect 2 0 10 0;
#X connect 2 1 23 0;
#X connect 2 2 31 0;
#X connect 2 3 39 0;
#X connect 2 4 47 0;
#X connect 2 5 55 0;
#X connect 2 6 63 0;
#X connect 2 7 71 0;
#X connect 3 0 6 1;
#X connect 4 0 7 0;
#X connect 5 0 4 0;
#X connect 6 0 3 0;
#X connect 6 0 5 0;
#X connect 7 0 14 0;
#X connect 7 1 15 0;
#X connect 8 0 91 0;
#X connect 8 0 91 1;
#X connect 9 0 91 0;
#X connect 9 0 91 1;
#X connect 10 0 6 0;
#X connect 11 0 12 1;
#X connect 12 0 1 0;
#X connect 13 0 85 0;
#X connect 14 0 8 0;
#X connect 15 0 9 0;
#X connect 16 0 19 1;
#X connect 17 0 20 0;
#X connect 18 0 17 0;
#X connect 19 0 16 0;
#X connect 19 0 18 0;
#X connect 20 0 89 0;
#X connect 20 1 72 0;
#X connect 21 0 91 0;
#X connect 21 0 91 1;
#X connect 22 0 91 0;
#X connect 22 0 91 1;
#X connect 23 0 19 0;
#X connect 24 0 27 1;
#X connect 25 0 28 0;
#X connect 26 0 25 0;
#X connect 27 0 24 0;
#X connect 27 0 26 0;
#X connect 28 0 90 0;
#X connect 28 1 73 0;
#X connect 29 0 91 0;
#X connect 29 0 91 1;
#X connect 30 0 91 0;
#X connect 30 0 91 1;
#X connect 31 0 27 0;
#X connect 32 0 35 1;
#X connect 33 0 36 0;
#X connect 34 0 33 0;
#X connect 35 0 32 0;
#X connect 35 0 34 0;
#X connect 36 0 74 0;
#X connect 36 1 75 0;
#X connect 37 0 91 0;
#X connect 37 0 91 1;
#X connect 38 0 91 0;
#X connect 38 0 91 1;
#X connect 39 0 35 0;
#X connect 40 0 43 1;
#X connect 41 0 44 0;
#X connect 42 0 41 0;
#X connect 43 0 40 0;
#X connect 43 0 42 0;
#X connect 44 0 76 0;
#X connect 44 1 77 0;
#X connect 45 0 91 0;
#X connect 45 0 91 1;
#X connect 46 0 91 0;
#X connect 46 0 91 1;
#X connect 47 0 43 0;
#X connect 48 0 51 1;
#X connect 49 0 52 0;
#X connect 50 0 49 0;
#X connect 51 0 48 0;
#X connect 51 0 50 0;
#X connect 52 0 78 0;
#X connect 52 1 79 0;
#X connect 53 0 91 0;
#X connect 53 0 91 1;
#X connect 54 0 91 0;
#X connect 54 0 91 1;
#X connect 55 0 51 0;
#X connect 56 0 59 1;
#X connect 57 0 60 0;
#X connect 58 0 57 0;
#X connect 59 0 56 0;
#X connect 59 0 58 0;
#X connect 60 0 80 0;
#X connect 60 1 81 0;
#X connect 61 0 91 0;
#X connect 61 0 91 1;
#X connect 62 0 91 0;
#X connect 62 0 91 1;
#X connect 63 0 59 0;
#X connect 64 0 67 1;
#X connect 65 0 68 0;
#X connect 66 0 65 0;
#X connect 67 0 64 0;
#X connect 67 0 66 0;
#X connect 68 0 82 0;
#X connect 68 1 83 0;
#X connect 69 0 91 0;
#X connect 69 0 91 1;
#X connect 70 0 91 0;
#X connect 70 0 91 1;
#X connect 71 0 67 0;
#X connect 72 0 22 0;
#X connect 73 0 30 0;
#X connect 74 0 37 0;
#X connect 75 0 38 0;
#X connect 76 0 45 0;
#X connect 77 0 46 0;
#X connect 78 0 53 0;
#X connect 79 0 54 0;
#X connect 80 0 61 0;
#X connect 81 0 62 0;
#X connect 82 0 69 0;
#X connect 83 0 70 0;
#X connect 84 0 13 0;
#X connect 84 0 12 0;
#X connect 85 0 86 0;
#X connect 86 0 11 0;
#X connect 87 0 84 0;
#X connect 88 0 0 0;
#X connect 89 0 21 0;
#X connect 90 0 29 0;
